<svg xmlns="http://www.w3.org/2000/svg" viewBox="0 0 24 24" fill="currentColor">
  <circle cx="12" cy="12" r="10" fill="none" stroke="currentColor" stroke-width="1.5"/>
  <circle cx="12" cy="12" r="2.5"/>
  <circle cx="12" cy="2" r="1.5"/>
  <circle cx="19.07" cy="4.93" r="1.5"/>
  <circle cx="22" cy="12" r="1.5"/>
  <circle cx="19.07" cy="19.07" r="1.5"/>
  <circle cx="12" cy="22" r="1.5"/>
  <circle cx="4.93" cy="19.07" r="1.5"/>
  <circle cx="2" cy="12" r="1.5"/>
  <circle cx="4.93" cy="4.93" r="1.5"/>
  <line x1="12" y1="9.5" x2="12" y2="3.5" stroke="currentColor" stroke-width="1.5" stroke-linecap="round"/>
  <line x1="13.77" y1="10.23" x2="18.01" y2="5.99" stroke="currentColor" stroke-width="1.5" stroke-linecap="round"/>
  <line x1="14.5" y1="12" x2="20.5" y2="12" stroke="currentColor" stroke-width="1.5" stroke-linecap="round"/>
  <line x1="13.77" y1="13.77" x2="18.01" y2="18.01" stroke="currentColor" stroke-width="1.5" stroke-linecap="round"/>
  <line x1="12" y1="14.5" x2="12" y2="20.5" stroke="currentColor" stroke-width="1.5" stroke-linecap="round"/>
  <line x1="10.23" y1="13.77" x2="5.99" y2="18.01" stroke="currentColor" stroke-width="1.5" stroke-linecap="round"/>
  <line x1="9.5" y1="12" x2="3.5" y2="12" stroke="currentColor" stroke-width="1.5" stroke-linecap="round"/>
  <line x1="10.23" y1="10.23" x2="5.99" y2="5.99" stroke="currentColor" stroke-width="1.5" stroke-linecap="round"/>
</svg>
